<?xml version="1.0" encoding="utf-8"?>
<!-- Svg Vector Icons : http://www.onlinewebfonts.com/icon -->
<!DOCTYPE svg PUBLIC "-//W3C//DTD SVG 1.1//EN" "http://www.w3.org/Graphics/SVG/1.1/DTD/svg11.dtd">
<svg version="1.1" xmlns="http://www.w3.org/2000/svg" xmlns:xlink="http://www.w3.org/1999/xlink" x="0px" y="0px" viewBox="0 0 1000 1000" enable-background="new 0 0 1000 1000" xml:space="preserve">
<metadata> Svg Vector Icons : http://www.onlinewebfonts.com/icon </metadata>
<g><g transform="translate(0.000000,511.000000) scale(0.100000,-0.100000)"><path d="M4463.7,4989.8C2246.1,4740.7,471.1,3025.7,146.3,823.6C88.5,429.9,84-172.8,137.4-546.5C319.8-1858.9,1018.2-3042.2,2068.1-3823c716.2-533.8,1559.3-860.8,2451.2-952c324.8-31.2,960.9-15.6,1256.7,35.6c618.4,102.3,1259,338.1,1757.2,645C8643.3-3411.5,9426.2-2366,9746.5-1136C9866.6-680,9900-397.5,9900,109.6c0,507.1-33.4,789.6-153.5,1245.6C9234.9,3319.3,7548.9,4769.6,5520.3,4992C5284.5,5018.7,4701.7,5016.5,4463.7,4989.8z M5667.1,3481.7C6995,3212.6,8024.9,2216.1,8345.2,890.4c186.9-767.4,89-1592.6-273.6-2315.5c-482.7-965.4-1392.4-1648.2-2462.3-1848.4c-327-62.3-960.9-57.9-1270.1,8.9c-700.7,151.3-1259,451.5-1757.2,949.8c-493.8,491.6-791.9,1036.5-947.6,1726.1c-44.5,202.4-51.2,291.4-51.2,698.4c0,407,6.7,496,51.2,698.4c155.7,689.5,453.8,1234.5,947.6,1726.1c551.6,549.4,1225.6,885.3,1981.9,987.6C4804.1,3555.1,5418,3532.9,5667.1,3481.7z"/><path d="M4741.8,1878c-622.8-97.9-1172.2-536.1-1394.7-1107.7c-340.3-871.9,31.1-1844,854.2-2246.6c311.4-151.3,476-191.3,807.4-189.1c311.4,2.2,527.2,51.2,776.3,173.5c358.1,177.9,629.5,449.3,805.2,800.8c135.7,278,186.8,491.6,186.8,800.7c0,965.4-729.6,1730.5-1699.4,1777.2C4966.4,1893.6,4815.2,1889.1,4741.8,1878z"/></g></g>
</svg>