<svg width="9" height="9" viewBox="0 0 9 9" fill="none" xmlns="http://www.w3.org/2000/svg">
<path fill-rule="evenodd" clip-rule="evenodd" d="M0.853542 0.146435C0.658273 -0.0488209 0.34169 -0.0488104 0.146435 0.146459C-0.0488208 0.341727 -0.0488103 0.65831 0.146458 0.853565L3.54387 4.25075L0.146459 7.64793C-0.0488099 7.84319 -0.0488205 8.15977 0.146435 8.35504C0.341691 8.55031 0.658273 8.55032 0.853542 8.35506L4.251 4.95783L7.64819 8.3548C7.84346 8.55006 8.16005 8.55005 8.3553 8.35478C8.55056 8.15951 8.55055 7.84293 8.35528 7.64767L4.95813 4.25075L8.35528 0.853825C8.55055 0.658569 8.55056 0.341987 8.3553 0.146718C8.16005 -0.0485507 7.84346 -0.0485613 7.64819 0.146694L4.251 3.54366L0.853542 0.146435Z" fill="#BBBBBD"/>
</svg>
