<?xml version="1.0" encoding="utf-8"?>
<!-- Svg Vector Icons : http://www.onlinewebfonts.com/icon -->
<!DOCTYPE svg PUBLIC "-//W3C//DTD SVG 1.1//EN" "http://www.w3.org/Graphics/SVG/1.1/DTD/svg11.dtd">
<svg version="1.1" xmlns="http://www.w3.org/2000/svg" xmlns:xlink="http://www.w3.org/1999/xlink" x="0px" y="0px" viewBox="0 0 1000 1000" enable-background="new 0 0 1000 1000" xml:space="preserve">
<metadata> Svg Vector Icons : http://www.onlinewebfonts.com/icon </metadata>
<g><path d="M929.2,249c-20.8-34.4-46.5-68.1-77.9-99.3c-31.7-31.5-66-57.4-101.1-78.1L811.8,10c0,0,89.1,0,133.6,44.5C990,99.1,990,188.2,990,188.2L929.2,249L929.2,249z M380.6,805.6H194.5V619.4l22.4-22.3c37.8,17.8,75.4,43,109.2,76.8c33.8,33.8,59,71.4,76.9,109.3L380.6,805.6L380.6,805.6z M877.8,300.5l-421.1,429c-21.7-36-48.5-71.1-81.3-103.7c-33.2-33-68.9-59.9-105.5-81.6l429.8-421.9c36.2,17,72.2,41.1,104.6,73.5C836.6,228.3,860.7,264.2,877.8,300.5L877.8,300.5z M132.5,132.5v734.9h735V561.3L990,438.8l0,462.1c0,49.2-39.9,89.1-89.1,89.1H99.1C49.9,990,10,950.1,10,900.9l0-801.8C10,49.9,49.9,10,99.1,10l462.2,0L438.7,132.5H132.5L132.5,132.5z"/></g>
</svg>