<?xml version="1.0" standalone="no"?>
<!DOCTYPE svg PUBLIC "-//W3C//DTD SVG 20010904//EN"
 "http://www.w3.org/TR/2001/REC-SVG-20010904/DTD/svg10.dtd">
<svg version="1.0" xmlns="http://www.w3.org/2000/svg"
 width="415.000000pt" height="121.000000pt" viewBox="0 0 415.000000 121.000000"
 preserveAspectRatio="xMidYMid meet">

<g transform="translate(0.000000,121.000000) scale(0.100000,-0.100000)"
fill="#000000" stroke="none">
<path d="M1459 1153 c-7 -41 -5 -160 3 -170 5 -6 8 -39 6 -74 -3 -61 -4 -63
-32 -66 -17 -2 -33 1 -37 9 -16 24 -10 -46 6 -76 19 -36 19 -36 -9 -36 -13 0
-27 -7 -30 -16 -4 -12 -14 -14 -36 -9 -29 6 -30 6 -30 -34 0 -45 -46 -171 -62
-171 -10 0 -7 45 7 88 9 27 -12 30 -30 5 -10 -14 -16 -15 -27 -5 -22 18 -30 2
-13 -25 28 -41 12 -59 -57 -67 -33 -3 -91 -6 -127 -6 -60 0 -72 -3 -128 -41
-56 -36 -64 -46 -79 -95 -18 -54 -18 -54 -58 -54 -29 0 -54 9 -85 30 -24 17
-51 31 -60 31 -9 1 -2 5 14 9 27 7 25 8 -17 9 -27 0 -48 -3 -48 -8 0 -10 -124
-41 -165 -41 -14 0 -28 7 -30 15 -3 8 -7 21 -9 29 -4 12 -10 13 -37 3 -27 -10
-29 -12 -10 -15 12 -2 26 -15 32 -28 12 -33 12 -34 -8 -34 -15 0 -16 -2 -3
-10 9 -6 10 -10 3 -10 -6 0 -15 5 -18 10 -3 6 -11 10 -16 10 -6 0 -7 -4 -4
-10 3 -5 -3 -10 -15 -10 -12 0 -19 4 -16 8 3 5 -1 9 -9 9 -8 0 -15 -4 -15 -8
0 -5 -24 -7 -52 -5 -33 3 -56 0 -61 -7 -6 -9 -10 -9 -14 1 -8 20 -23 14 -23
-10 0 -36 40 -173 61 -206 l19 -32 1820 0 1819 0 16 31 c27 51 81 117 196 238
88 93 109 120 107 141 -2 20 -9 26 -35 28 -26 3 -32 0 -27 -12 7 -17 -11 -22
-21 -6 -3 6 -33 10 -66 10 -46 0 -59 -3 -59 -15 0 -8 -7 -15 -16 -15 -8 0 -12
5 -9 10 3 6 -1 10 -10 10 -9 0 -13 -5 -10 -10 3 -6 -4 -10 -17 -10 -18 0 -20
2 -8 10 11 7 5 10 -23 10 -24 0 -40 -5 -43 -15 -4 -8 -10 -15 -16 -15 -5 0 -7
4 -4 9 3 5 -2 15 -11 22 -13 11 -17 11 -20 2 -3 -7 -12 -13 -21 -13 -8 0 -24
-8 -35 -18 -15 -12 -21 -14 -24 -4 -7 19 -113 16 -113 -3 0 -8 -9 -15 -21 -15
-11 0 -17 4 -14 10 4 6 -10 10 -35 10 -23 0 -39 -3 -36 -8 2 -4 -2 -16 -10
-27 -14 -18 -14 -18 -14 3 0 22 -7 26 -47 22 -38 -3 -27 27 15 38 l37 11 -40
-1 c-22 0 -51 4 -65 9 -54 21 -78 23 -94 7 -9 -8 -16 -23 -16 -33 0 -35 -24
-71 -48 -71 -14 0 -21 4 -16 11 4 7 -9 10 -40 8 -25 -2 -48 0 -52 4 -11 10
-124 8 -124 -2 0 -5 -14 -13 -32 -16 -26 -6 -35 -4 -46 14 -11 16 -25 21 -58
21 -30 0 -44 4 -44 13 0 8 -9 22 -20 32 -28 25 -25 45 5 45 16 0 25 6 25 15 0
9 -9 15 -22 15 -41 0 -97 33 -98 57 0 15 -5 21 -14 17 -8 -3 -19 3 -26 15 -7
14 -20 21 -38 20 l-27 -2 28 -4 c16 -3 27 -9 25 -14 -2 -6 -7 -10 -11 -10 -4
1 -27 1 -51 1 -38 0 -45 3 -49 23 l-4 22 -2 -23 c-1 -31 -35 -26 -39 6 -2 12
-10 22 -18 22 -18 0 -18 9 2 31 15 16 14 19 -4 30 -19 12 -20 21 -16 99 5 109
-2 93 -11 -22 -6 -75 -9 -88 -25 -88 -20 0 -38 62 -20 68 17 6 12 52 -6 52
-14 0 -14 1 0 16 24 23 20 39 -19 77 -41 40 -43 47 -11 47 35 0 37 10 18 63
-16 44 -19 47 -53 47 -35 0 -38 -2 -53 -47 -9 -27 -12 -49 -8 -51 5 -1 18 -9
28 -16 18 -14 18 -15 0 -35 -11 -12 -30 -21 -43 -21 -12 0 -23 -4 -23 -9 0
-19 -32 -41 -61 -41 -16 0 -29 -4 -29 -9 0 -5 9 -7 20 -4 24 6 95 -6 86 -15
-4 -3 -24 -5 -46 -4 -31 2 -38 0 -34 -12 3 -8 1 -17 -5 -21 -7 -3 -11 2 -11
14 0 38 -16 21 -55 -59 -21 -44 -42 -80 -45 -80 -4 0 -15 -19 -24 -42 -15 -39
-18 -41 -30 -26 -15 21 -37 23 -53 7 -19 -19 -41 -2 -46 33 -4 33 -4 33 -5 -5
-2 -38 -3 -38 -39 -35 l-37 3 -17 85 c-19 99 -25 92 -7 -9 12 -70 12 -70 -14
-90 -15 -12 -29 -36 -32 -55 -6 -33 -26 -60 -26 -37 0 6 -9 11 -21 11 -18 0
-20 4 -14 29 6 27 4 30 -21 33 -25 3 -29 9 -46 78 -10 41 -19 90 -19 108 0 49
44 85 54 45 3 -11 5 -8 6 9 1 21 -3 26 -14 22 -33 -13 -46 16 -45 100 2 162
-3 210 -22 214 -10 2 -19 0 -19 -5z m-19 -333 c0 -5 -9 -10 -20 -10 -11 0 -20
5 -20 10 0 6 9 10 20 10 11 0 20 -4 20 -10z m680 3 c0 -5 -9 -21 -20 -38 l-20
-30 0 31 c0 17 3 34 7 37 9 9 33 9 33 0z m35 -40 c-3 -27 -9 -75 -15 -108 -5
-33 -10 -63 -10 -67 0 -5 -15 -8 -34 -8 -24 0 -36 -5 -39 -17 -3 -10 -5 3 -6
30 0 26 4 47 9 47 6 0 10 7 10 16 0 8 -4 12 -10 9 -5 -3 -10 -1 -10 5 0 6 7
10 16 8 9 -2 30 17 51 47 l36 50 -36 -40 c-20 -22 -36 -35 -37 -29 0 15 58
104 69 104 5 0 8 -21 6 -47z m-146 -58 c-18 -25 -34 -43 -36 -41 -3 2 10 33
28 67 27 51 34 59 37 42 2 -14 -9 -41 -29 -68z m52 8 c-9 -15 -10 -13 -11 13
0 17 3 34 8 38 11 12 14 -32 3 -51z m-24 -37 c-3 -25 -8 -49 -12 -55 -3 -6 -1
-11 4 -11 6 0 11 -15 11 -32 l-1 -33 -14 40 c-8 21 -11 44 -7 50 4 6 -6 -4
-21 -22 -28 -32 -57 -44 -57 -23 0 6 11 21 25 34 14 13 25 28 25 33 0 11 38
63 46 63 3 0 3 -20 1 -44z m2045 -233 c-6 -2 -10 -9 -6 -14 3 -5 1 -9 -4 -9
-6 0 -12 7 -16 15 -4 11 1 15 17 14 12 0 16 -3 9 -6z m-95 -9 c-3 -3 -12 -4
-19 -1 -8 3 -5 6 6 6 11 1 17 -2 13 -5z m-194 -24 c-3 -11 -10 -20 -16 -20 -6
0 -7 3 -4 7 4 3 2 12 -4 20 -9 10 -7 13 9 13 15 0 19 -5 15 -20z m-100 3 c-7
-2 -19 -2 -25 0 -7 3 -2 5 12 5 14 0 19 -2 13 -5z m294 1 c-3 -3 -12 -4 -19
-1 -8 3 -5 6 6 6 11 1 17 -2 13 -5z m-429 -16 c-4 -20 -22 -28 -30 -15 -13 20
-9 27 12 27 11 0 19 -6 18 -12z m289 6 c-3 -3 -12 -4 -19 -1 -8 3 -5 6 6 6 11
1 17 -2 13 -5z m-394 -11 c-7 -2 -19 -2 -25 0 -7 3 -2 5 12 5 14 0 19 -2 13
-5z m-100 -10 c-7 -2 -19 -2 -25 0 -7 3 -2 5 12 5 14 0 19 -2 13 -5z m244 1
c-3 -3 -12 -4 -19 -1 -8 3 -5 6 6 6 11 1 17 -2 13 -5z m-150 -10 c-3 -3 -12
-4 -19 -1 -8 3 -5 6 6 6 11 1 17 -2 13 -5z m60 0 c-3 -3 -12 -4 -19 -1 -8 3
-5 6 6 6 11 1 17 -2 13 -5z m-154 -11 c-7 -2 -19 -2 -25 0 -7 3 -2 5 12 5 14
0 19 -2 13 -5z m-488 -33 c-3 -5 -10 -10 -16 -10 -5 0 -9 5 -9 10 0 6 7 10 16
10 8 0 12 -4 9 -10z m-2488 -56 c-3 -3 -12 -4 -19 -1 -8 3 -5 6 6 6 11 1 17
-2 13 -5z m60 0 c-3 -3 -12 -4 -19 -1 -8 3 -5 6 6 6 11 1 17 -2 13 -5z m283
-3 c0 -6 -4 -13 -10 -16 -5 -3 -10 1 -10 9 0 9 5 16 10 16 6 0 10 -4 10 -9z
m30 0 c0 -6 -4 -13 -10 -16 -5 -3 -10 1 -10 9 0 9 5 16 10 16 6 0 10 -4 10 -9z"/>
<path d="M2362 995 c-1 -16 -5 -41 -8 -55 -5 -19 -4 -22 5 -14 7 7 11 29 8 55
-2 30 -4 34 -5 14z"/>
<path d="M1772 765 c0 -16 2 -22 5 -12 2 9 2 23 0 30 -3 6 -5 -1 -5 -18z"/>
<path d="M1782 710 c0 -14 2 -19 5 -12 2 6 2 18 0 25 -3 6 -5 1 -5 -13z"/>
<path d="M2578 643 c6 -2 18 -2 25 0 6 3 1 5 -13 5 -14 0 -19 -2 -12 -5z"/>
<path d="M3403 473 c9 -2 25 -2 35 0 9 3 1 5 -18 5 -19 0 -27 -2 -17 -5z"/>
<path d="M458 383 c12 -2 32 -2 45 0 12 2 2 4 -23 4 -25 0 -35 -2 -22 -4z"/>
<path d="M653 383 c9 -2 23 -2 30 0 6 3 -1 5 -18 5 -16 0 -22 -2 -12 -5z"/>
</g>
</svg>
