<?xml version="1.0" standalone="no"?>
<!DOCTYPE svg PUBLIC "-//W3C//DTD SVG 20010904//EN"
 "http://www.w3.org/TR/2001/REC-SVG-20010904/DTD/svg10.dtd">
<svg version="1.0" xmlns="http://www.w3.org/2000/svg"
 width="800.000000pt" height="210.000000pt" viewBox="0 0 800.000000 210.000000"
 preserveAspectRatio="xMidYMid meet">

<g transform="translate(0.000000,210.000000) scale(0.100000,-0.100000)"
fill="#000000" stroke="none">
<path d="M4080 1993 c0 -23 -5 -33 -15 -33 -14 0 -14 -3 -1 -22 19 -31 36
-201 26 -263 -5 -27 -9 -56 -9 -62 -1 -7 -12 -13 -26 -13 -22 0 -25 -4 -25
-35 0 -24 5 -35 15 -35 9 0 15 -9 15 -23 0 -18 -5 -23 -27 -22 -14 0 -28 -5
-30 -11 -4 -13 42 -24 102 -24 33 0 46 -5 59 -22 12 -16 18 -19 22 -10 3 6 17
12 30 12 19 0 24 -5 24 -25 0 -20 -5 -25 -25 -25 -31 0 -50 -32 -35 -59 9 -17
6 -20 -18 -24 -19 -3 -16 -4 14 -6 41 -1 41 -1 35 -33 -5 -26 -13 -34 -36 -39
l-30 -7 28 -1 c43 -2 33 -45 -13 -54 -25 -4 -25 -4 3 -6 28 -1 39 -21 12 -21
-9 0 -15 -9 -15 -25 0 -20 -5 -25 -25 -25 -14 0 -25 -4 -25 -10 0 -5 6 -10 13
-10 14 0 39 -49 31 -61 -3 -5 -25 -9 -50 -9 -44 0 -44 0 -44 -35 0 -32 2 -35
30 -35 32 0 40 -14 15 -24 -19 -7 -21 -96 -2 -115 10 -10 8 -15 -7 -27 -28
-20 -34 -18 -28 11 2 14 0 25 -6 25 -6 0 -12 -17 -14 -37 l-3 -38 -52 -3 c-32
-2 -53 1 -53 7 0 6 -11 11 -25 11 -18 0 -25 5 -25 20 0 18 -7 20 -70 20 l-70
0 0 50 c0 39 -3 48 -14 44 -8 -3 -16 -22 -18 -42 l-3 -37 -64 94 c-59 87 -62
95 -50 118 10 18 10 29 2 41 -8 14 -23 16 -77 13 l-66 -3 0 73 0 74 20 -32
c32 -53 91 -70 123 -35 24 27 70 197 62 232 -4 18 -33 56 -76 98 -65 64 -69
71 -63 102 l7 33 -34 -7 c-19 -5 -44 -10 -56 -13 -21 -5 -23 -1 -23 30 0 20
-4 39 -10 42 -6 3 -10 -4 -10 -17 0 -13 -6 -32 -14 -43 -11 -16 -11 -33 -3
-82 12 -76 8 -88 -33 -97 -26 -5 -31 -10 -27 -26 6 -25 3 -25 -32 1 -25 18
-33 19 -69 10 -56 -16 -104 -62 -100 -98 4 -36 66 -71 139 -80 52 -6 53 -6 86
33 l33 39 0 -115 0 -116 -26 1 c-34 0 -54 -28 -38 -52 6 -10 23 -18 38 -18 14
1 26 -5 26 -11 0 -7 8 -15 18 -17 9 -3 -148 -5 -350 -6 l-368 -1 0 30 c0 17 3
30 8 30 4 0 7 17 7 38 1 20 5 49 9 64 l8 28 -56 0 c-51 0 -75 -12 -44 -22 9
-3 -1 -46 -32 -146 -40 -128 -47 -142 -67 -142 -19 0 -23 -5 -23 -30 0 -17 -7
-47 -15 -67 -8 -19 -15 -60 -15 -89 0 -46 3 -54 19 -54 12 0 23 -11 29 -27 5
-16 13 -36 17 -46 6 -15 -1 -17 -84 -17 l-91 0 0 -44 c0 -52 -8 -56 -117 -56
-61 0 -74 3 -83 19 -10 19 -11 19 -67 -4 -57 -23 -58 -23 -67 -4 -5 10 -15 19
-23 19 -7 0 -13 7 -13 15 0 8 -7 15 -16 15 -9 0 -18 9 -21 20 -4 16 -14 20
-43 20 -36 0 -38 2 -49 46 l-12 45 -144 -7 -145 -7 0 27 c0 21 5 26 25 26 24
0 25 3 25 56 l0 56 -40 -3 c-52 -4 -59 5 -27 35 35 33 34 64 -4 112 -47 60
-73 70 -121 48 -43 -19 -58 -39 -58 -79 0 -32 24 -81 45 -88 27 -11 16 -26
-22 -29 -21 -2 -37 -6 -35 -10 1 -5 2 -28 2 -53 0 -38 3 -45 20 -45 15 0 20
-7 20 -25 0 -23 -4 -25 -44 -25 -43 0 -45 1 -49 33 l-4 32 -1 -32 -2 -33 -59
0 c-58 0 -60 1 -66 30 -9 40 -33 40 -27 0 3 -23 0 -30 -12 -30 -11 0 -16 9
-16 30 0 17 -4 30 -10 30 -5 0 -10 -13 -10 -30 0 -27 -3 -30 -30 -30 -23 0
-30 4 -30 20 0 11 -4 20 -10 20 -5 0 -10 -9 -10 -20 0 -13 -7 -20 -18 -20 -15
0 -29 -26 -64 -117 l-45 -118 -332 -3 -331 -2 0 -40 0 -40 -86 0 c-57 0 -84
-4 -82 -11 2 -6 39 -51 83 -100 l80 -89 3607 0 3606 0 68 88 c150 194 198 245
388 409 86 75 96 88 82 98 -13 10 -16 33 -17 116 -2 92 -3 98 -9 49 -5 -30 -8
-79 -9 -107 -1 -29 -4 -53 -9 -53 -4 0 -195 -18 -425 -40 -229 -22 -425 -40
-436 -40 -11 0 -23 9 -26 20 -10 31 -166 29 -285 -5 -97 -27 -120 -30 -120
-15 0 6 7 10 15 10 11 0 14 7 9 25 -4 16 -2 25 6 25 6 0 8 4 5 10 -4 6 39 10
121 10 70 0 125 3 122 6 -4 3 -63 5 -132 5 l-125 0 -21 34 c-20 33 -80 65
-121 65 -61 0 -119 -66 -119 -137 0 -39 2 -43 25 -43 16 0 25 -6 25 -15 0 -12
-14 -15 -65 -15 l-65 0 0 44 c0 30 5 46 15 50 8 3 15 12 15 21 0 9 -7 18 -15
21 -8 4 -15 12 -15 20 0 10 -15 14 -57 14 -59 0 -103 21 -159 78 -31 30 -43
28 -59 -12 -8 -19 -23 -36 -32 -38 -29 -6 -146 43 -169 70 -25 31 -54 24 -54
-13 0 -20 -5 -25 -27 -26 -72 -4 -109 4 -134 27 -22 21 -34 24 -108 24 -106 0
-121 -8 -121 -65 0 -38 -3 -45 -19 -45 -17 0 -20 8 -23 53 -3 47 -5 52 -25 51
-27 -1 -31 30 -8 60 23 31 2 59 -38 50 -18 -3 -38 -11 -44 -16 -20 -16 -15
-49 7 -55 34 -9 24 -33 -13 -33 -42 0 -77 35 -77 75 0 35 29 115 41 115 5 0 9
11 9 25 0 25 -1 25 -80 25 -64 0 -80 3 -80 15 0 8 -7 15 -15 15 -8 0 -15 -7
-15 -15 0 -12 -17 -15 -90 -15 l-90 0 0 63 c1 56 2 60 15 43 24 -31 45 -13 45
39 0 50 -24 73 -42 42 -6 -12 -23 -17 -58 -17 l-50 0 0 -85 c0 -76 -2 -85 -19
-85 -13 0 -20 10 -25 32 -7 34 -22 29 -28 -10 -2 -16 -18 11 -54 90 -36 79
-49 117 -42 125 6 7 8 20 4 28 -7 19 8 19 24 0 14 -16 46 -20 54 -6 3 4 -8 30
-25 56 -35 56 -35 81 3 78 24 -1 25 0 15 28 -11 27 -37 41 -37 19 0 -5 -9 -10
-19 -10 -25 0 -51 -37 -51 -72 0 -42 -23 -34 -48 17 -28 58 -28 65 6 66 25 1
24 2 -16 20 -40 19 -49 39 -16 39 9 0 25 6 37 13 20 11 15 13 -42 17 -71 5
-68 2 -85 94 l-7 39 23 -28 c22 -25 27 -27 81 -20 31 4 57 12 57 17 0 9 -13
64 -41 171 -9 36 -12 38 -40 32 -22 -5 -29 -3 -29 9 0 12 -10 16 -39 16 -38 0
-38 0 -45 -48 l-6 -47 -80 3 c-104 5 -112 2 -97 -38 9 -23 26 -39 61 -57 l50
-25 17 21 c24 29 53 28 46 -1 -3 -13 -9 -49 -12 -81 l-7 -58 -70 2 -70 2 -18
41 c-11 26 -22 95 -30 191 -12 140 -29 225 -30 148z m705 -805 c2 -7 6 -34 10
-60 l6 -48 -30 0 -31 0 0 60 c0 54 2 60 20 60 11 0 22 -6 25 -12z m-2145 -435
l0 -38 -20 25 c-18 23 -18 26 -3 38 23 17 23 17 23 -25z m-10 -203 c0 -38 -4
-50 -15 -50 -16 0 -19 19 -9 69 10 48 24 37 24 -19z"/>
</g>
</svg>
