<?xml version="1.0" standalone="no"?>
<!DOCTYPE svg PUBLIC "-//W3C//DTD SVG 20010904//EN"
 "http://www.w3.org/TR/2001/REC-SVG-20010904/DTD/svg10.dtd">
<svg version="1.0" xmlns="http://www.w3.org/2000/svg"
 width="840.000000pt" height="334.000000pt" viewBox="0 0 840.000000 334.000000"
 preserveAspectRatio="xMidYMid meet">

<g transform="translate(0.000000,334.000000) scale(0.100000,-0.100000)"
fill="#000000" stroke="none">
<path d="M4847 2913 c-4 -3 -7 -21 -7 -40 0 -31 -2 -33 -35 -33 -34 0 -46 -12
-25 -25 13 -8 13 -102 0 -107 -6 -2 -2 -30 10 -73 11 -38 20 -71 20 -72 0 -2
-14 -3 -31 -3 -40 0 -34 -24 8 -28 24 -2 33 -9 37 -29 4 -13 2 -31 -4 -38 -14
-17 -4 -55 15 -55 12 0 25 -21 25 -41 0 -5 -9 -9 -20 -9 -16 0 -20 -7 -20 -37
1 -31 7 -42 34 -63 19 -14 32 -29 29 -33 -3 -5 -20 5 -37 22 -32 31 -33 31
-50 13 -9 -11 -44 -25 -79 -32 -110 -23 -133 -36 -162 -93 -35 -70 -33 -79 9
-62 85 36 212 43 220 12 2 -7 9 -56 15 -111 16 -138 47 -284 87 -404 33 -99
34 -104 22 -167 -6 -36 -15 -65 -20 -65 -5 0 -20 7 -33 16 l-25 16 0 -51 c0
-44 -3 -51 -20 -51 -11 0 -20 -7 -20 -15 0 -8 -7 -15 -15 -15 -9 0 -15 -9 -15
-21 0 -42 -25 -11 -37 47 -16 79 -16 82 8 89 18 6 20 13 16 48 -9 90 -40 207
-53 207 -17 0 -17 -8 1 -90 18 -83 19 -80 -6 -80 -15 0 -19 5 -14 19 3 11 -1
26 -10 35 -14 13 -43 16 -184 16 -196 0 -212 -5 -194 -64 l11 -36 -38 0 c-28
0 -43 6 -53 21 -37 52 -171 179 -180 170 -6 -6 24 -45 82 -106 72 -76 91 -103
91 -126 0 -24 4 -29 25 -29 14 0 25 -6 25 -12 -1 -29 -48 -319 -52 -324 -3 -3
-23 17 -44 45 -30 38 -46 50 -66 51 l-28 0 0 -115 0 -115 -64 0 -64 0 -16 73
c-9 39 -31 142 -50 227 -30 138 -32 156 -18 165 56 36 71 88 29 104 -21 8 -27
30 -71 243 -48 233 -60 273 -75 263 -7 -4 40 -252 87 -462 8 -35 7 -43 -4 -43
-9 0 -14 11 -14 29 0 17 -6 31 -16 35 -20 8 -322 8 -351 0 -27 -7 -31 -48 -8
-81 13 -19 13 -22 -2 -28 -10 -3 -19 -1 -21 4 -2 6 -10 11 -17 11 -7 0 -16 11
-19 25 -3 13 -15 29 -26 35 -15 8 -18 17 -13 41 l6 30 -53 -3 c-58 -3 -74 -17
-38 -33 33 -14 33 -35 0 -85 -16 -25 -35 -66 -42 -92 -12 -45 -30 -65 -30 -34
0 8 -12 24 -26 35 -20 16 -23 24 -15 39 6 11 7 22 4 26 -9 9 -113 7 -113 -2 0
-5 14 -18 31 -31 30 -22 30 -23 13 -49 -9 -15 -23 -31 -31 -35 -7 -4 -13 -19
-13 -32 0 -18 -4 -23 -15 -19 -9 4 -15 0 -15 -10 0 -9 -7 -16 -15 -16 -24 0
-18 -19 10 -32 14 -6 25 -15 25 -20 0 -11 -120 -88 -137 -88 -9 0 -13 19 -13
64 0 62 -14 96 -40 96 -19 0 -40 -34 -40 -65 0 -29 -4 -34 -27 -37 -39 -4 -42
-28 -4 -28 24 0 31 -4 31 -20 0 -17 -7 -20 -47 -20 -27 -1 -84 -7 -128 -15
-46 -8 -143 -15 -227 -15 l-146 0 -22 -35 -21 -35 -357 -2 -357 -3 -5 -86 c-6
-101 -27 -140 -104 -193 -35 -23 -48 -26 -130 -26 -67 1 -86 3 -74 11 24 13
23 60 -2 91 -14 18 -37 29 -82 38 -73 15 -138 39 -138 50 0 8 54 -3 199 -40
41 -10 78 -17 83 -14 19 12 4 23 -49 37 l-58 15 92 -6 c68 -4 93 -2 93 7 0 17
-9 19 -200 33 -188 14 -218 13 -439 -5 -106 -9 -146 -16 -149 -26 -4 -11 15
-13 109 -8 l114 6 -47 -16 c-27 -9 -48 -22 -48 -30 0 -18 4 -17 105 17 49 16
93 30 99 30 6 0 -40 -25 -101 -55 -92 -45 -121 -55 -163 -55 -44 0 -56 4 -83
32 -20 20 -27 33 -19 36 22 7 13 29 -18 42 -35 15 -36 16 -11 54 19 29 19 46
1 46 -5 0 -17 -15 -26 -32 -9 -18 -18 -34 -19 -36 -1 -2 -19 5 -39 14 -19 10
-39 14 -43 10 -8 -7 3 -17 44 -42 17 -11 17 -13 -1 -44 -22 -39 -7 -65 18 -29
8 13 17 21 20 18 11 -11 76 -125 76 -133 0 -5 -41 -7 -93 -3 -93 5 -127 -2
-127 -28 0 -7 18 -61 41 -119 l41 -106 3637 0 3636 0 27 58 c34 74 123 198
211 296 65 72 71 76 111 76 56 0 81 25 73 73 -5 31 0 39 43 82 40 39 47 52 39
66 -9 18 -37 16 -50 -4 -8 -11 -47 -16 -694 -77 -291 -27 -542 -52 -556 -54
-22 -4 -27 0 -37 30 -5 18 -7 34 -4 35 4 0 54 6 111 12 66 8 106 17 109 25 5
15 -34 16 -148 1 -68 -8 -85 -8 -89 3 -2 7 -17 25 -32 40 -25 26 -33 28 -108
28 -91 0 -111 -12 -111 -63 0 -18 11 -56 25 -84 13 -29 21 -53 17 -53 -4 0
-144 -13 -312 -30 -168 -16 -308 -30 -312 -30 -5 0 -8 15 -8 34 0 18 -9 45
-20 59 -14 18 -20 40 -20 76 l0 51 34 0 c41 0 45 5 39 47 -5 30 -9 33 -39 33
-28 0 -34 4 -34 21 0 12 -8 23 -20 26 -30 8 -13 23 26 23 48 0 40 24 -9 28
l-36 3 -3 57 c-3 54 -5 57 -30 60 -35 4 -48 -25 -48 -109 0 -40 -4 -59 -12
-59 -7 0 -41 12 -75 26 l-62 26 -7 65 c-6 57 -4 67 15 87 l21 23 -41 91 c-30
66 -47 92 -62 94 -20 3 -325 400 -326 425 -1 7 14 16 32 21 28 7 32 13 35 45
3 32 0 37 -22 43 -35 9 -33 24 4 24 20 0 30 5 30 15 0 12 -14 15 -70 15 -56 0
-70 -3 -70 -15 0 -9 9 -15 25 -15 14 0 25 -4 25 -10 0 -5 -18 -10 -40 -10 -36
0 -43 4 -80 55 -35 48 -39 57 -28 75 7 11 18 20 25 20 8 0 13 15 13 40 l0 40
-55 0 -55 0 16 25 c9 14 23 25 30 25 9 0 14 11 14 30 0 29 -1 30 -50 30 l-50
0 0 40 c0 54 -27 56 -32 3 -3 -34 -8 -25 -45 85 -25 71 -43 140 -43 166 0 38
3 45 25 50 22 6 25 11 25 56 0 46 -7 60 -23 43z m116 -527 c-16 -21 -19 -22
-25 -8 -11 28 -9 32 17 32 26 0 26 0 8 -24z m37 -154 c0 -15 -2 -15 -10 -2
-13 20 -13 33 0 25 6 -3 10 -14 10 -23z m-135 -114 c-7 -66 -7 -67 19 -74 16
-4 26 -13 26 -24 0 -20 16 -34 40 -35 17 0 38 -64 39 -122 l1 -42 -57 -3 c-55
-3 -58 -4 -63 -33 -11 -57 -42 141 -47 300 l-5 150 27 -25 c25 -24 26 -28 20
-92z m206 30 c8 -16 5 -18 -20 -18 -24 0 -32 5 -37 25 -3 14 -3 33 1 42 6 16
8 15 26 -7 11 -14 24 -33 30 -42z m-151 -8 c0 -5 -4 -10 -10 -10 -5 0 -10 5
-10 10 0 6 5 10 10 10 6 0 10 -4 10 -10z m235 -109 c3 -5 -12 -23 -32 -40
l-38 -32 -12 28 c-20 47 -17 53 31 53 25 0 47 -4 51 -9z m80 -103 l46 -63 -65
-3 c-48 -2 -66 -7 -66 -17 0 -7 12 -16 28 -18 17 -3 12 -4 -12 -3 -38 1 -40 3
-57 51 l-17 50 37 32 c20 18 41 32 48 33 6 0 32 -28 58 -62z m105 -143 c22
-30 40 -56 40 -58 0 -3 -16 -8 -35 -11 -26 -5 -35 -12 -35 -26 0 -12 -15 -29
-35 -42 -19 -13 -35 -31 -35 -41 0 -28 -32 -17 -42 14 -11 33 23 96 58 110 20
7 24 16 24 49 0 37 -2 40 -27 41 -25 2 -24 2 7 9 19 4 36 8 37 9 1 0 21 -24
43 -54z m-373 -59 c4 -3 -30 -172 -37 -179 -5 -6 -60 161 -60 185 0 4 90 -1
97 -6z m103 -128 c0 -5 -5 -8 -11 -8 -7 0 -18 -8 -26 -17 -13 -16 -14 -15 -9
16 3 18 6 59 7 90 l1 56 19 -65 c10 -36 19 -68 19 -72z m373 49 l38 -52 -62
-3 c-34 -2 -64 -1 -67 3 -6 6 38 105 47 105 3 0 23 -24 44 -53z m-1280 -667
c-6 -7 -53 48 -53 63 0 6 13 -4 29 -23 16 -19 27 -37 24 -40z"/>
</g>
</svg>
