<?xml version="1.0" standalone="no"?>
<!DOCTYPE svg PUBLIC "-//W3C//DTD SVG 20010904//EN"
 "http://www.w3.org/TR/2001/REC-SVG-20010904/DTD/svg10.dtd">
<svg version="1.0" xmlns="http://www.w3.org/2000/svg"
 width="178.000000pt" height="178.000000pt" viewBox="0 0 178.000000 178.000000"
 preserveAspectRatio="xMidYMid meet">

<g transform="translate(0.000000,178.000000) scale(0.100000,-0.100000)"
fill="#000000" stroke="none">
<path d="M647 1018 c-6 -37 -13 -48 -30 -51 -20 -4 -20 -4 -2 -6 18 -1 20 -7
17 -57 -3 -42 -7 -54 -18 -50 -7 3 -18 -3 -23 -12 -8 -12 -10 6 -11 66 0 81 0
82 -25 82 -18 0 -25 -5 -25 -20 0 -13 7 -20 20 -20 18 0 20 -7 20 -64 l0 -64
-41 5 c-22 3 -50 1 -62 -5 -12 -6 -29 -13 -37 -15 -12 -4 -11 -6 3 -6 18 -1
25 -41 6 -41 -5 0 -7 5 -4 10 4 6 -12 10 -41 10 -42 0 -53 5 -86 37 -21 20
-38 32 -38 27 0 -6 14 -23 30 -39 17 -16 30 -32 30 -37 0 -11 -67 -10 -89 2
-13 6 -24 5 -37 -5 -13 -10 -47 -14 -111 -15 l-93 0 12 -25 11 -25 863 0 863
0 16 30 c8 16 15 44 14 62 0 30 -1 31 -11 11 -8 -18 -23 -23 -77 -29 -109 -13
-308 -11 -322 4 -20 19 -96 15 -108 -5 -9 -16 -10 -16 -11 4 0 19 6 22 43 26
23 2 -2 4 -55 5 -81 2 -98 -1 -98 -13 0 -8 -4 -15 -10 -15 -5 0 -10 14 -10 30
0 17 -5 30 -10 30 -6 0 -16 11 -22 25 -13 28 -28 33 -28 9 0 -11 -8 -14 -27
-12 -23 2 -28 7 -25 28 5 50 2 74 -15 92 -20 22 -39 23 -47 3 -9 -25 -22 -17
-41 25 -10 22 -20 38 -22 36 -3 -2 5 -26 16 -51 22 -50 28 -105 11 -105 -5 0
-10 7 -10 15 0 20 -39 19 -68 -1 -20 -13 -21 -21 -16 -68 4 -35 3 -56 -5 -60
-6 -4 -11 -1 -11 8 0 22 -17 28 -40 16 -19 -10 -20 -8 -20 44 l0 56 -32 -7
c-18 -3 -36 -11 -40 -17 -4 -6 -9 34 -10 89 -3 88 -4 94 -11 53z"/>
</g>
</svg>
