<?xml version="1.0" standalone="no"?>
<!DOCTYPE svg PUBLIC "-//W3C//DTD SVG 20010904//EN"
 "http://www.w3.org/TR/2001/REC-SVG-20010904/DTD/svg10.dtd">
<svg version="1.0" xmlns="http://www.w3.org/2000/svg"
 width="920.000000pt" height="247.000000pt" viewBox="0 0 920.000000 247.000000"
 preserveAspectRatio="xMidYMid meet">

<g transform="translate(0.000000,247.000000) scale(0.100000,-0.100000)"
fill="#000000" stroke="none">
<path d="M4385 2146 c-42 -18 -92 -78 -104 -123 -6 -21 -11 -76 -12 -122 l-2
-83 51 -66 c69 -87 69 -102 -2 -102 l-54 0 -6 63 c-3 34 -11 141 -17 237 -10
168 -18 205 -38 185 -5 -6 -12 -102 -16 -215 -3 -113 -8 -219 -11 -237 -5 -32
-5 -32 -72 -35 l-67 -3 47 -27 c44 -26 54 -28 168 -28 l122 0 -6 -27 c-8 -37
-66 -376 -66 -385 0 -5 -9 -8 -19 -8 -17 0 -23 -16 -43 -100 l-23 -100 -37 0
-36 0 -7 -62 c-5 -37 -23 -98 -45 -148 l-37 -85 -211 -3 -210 -2 -21 33 c-12
19 -21 48 -21 64 0 46 -27 63 -99 63 -34 0 -71 -5 -83 -11 -16 -9 -29 -4 -74
25 -57 38 -64 41 -64 27 0 -4 27 -27 59 -49 56 -40 59 -43 52 -74 -17 -76 -22
-78 -163 -78 l-127 0 -46 -65 -47 -65 -187 0 -187 0 -70 -96 c-87 -121 -150
-179 -217 -199 -52 -15 -257 -10 -1931 46 -180 6 -332 7 -336 2 -8 -9 -72
-215 -67 -219 1 -2 81 -17 177 -33 l174 -31 4107 0 4106 0 74 78 c40 42 180
187 311 321 131 135 238 247 238 251 0 3 -44 2 -97 -1 -545 -40 -966 -58
-1445 -64 -501 -6 -459 -13 -439 65 23 90 26 82 -49 144 -39 31 -70 60 -70 64
0 4 41 31 90 61 50 29 90 59 90 65 0 7 100 71 223 144 273 162 251 148 243
160 -4 7 -98 -44 -238 -129 -128 -76 -239 -139 -247 -139 -8 0 -61 -25 -117
-55 -57 -30 -107 -55 -112 -55 -4 0 -57 27 -118 60 -60 33 -118 60 -130 60
-25 0 -264 -166 -264 -183 1 -51 33 -195 50 -221 11 -19 20 -35 20 -37 0 -2
-106 -4 -237 -3 l-236 1 -119 204 c-89 154 -117 210 -113 228 19 78 19 76 -31
125 l-49 46 -125 0 c-96 0 -131 -4 -146 -15 -11 -8 -41 -14 -71 -15 l-53 0 0
74 c0 56 -4 75 -15 80 -27 10 -16 31 25 48 48 20 51 42 18 108 -35 67 -47 71
-123 31 -62 -32 -65 -35 -65 -71 0 -23 9 -51 25 -74 30 -44 30 -42 7 -48 -15
-4 -18 -16 -17 -77 l0 -71 -282 0 -282 0 -10 38 c-31 117 -91 361 -91 371 0 7
38 11 120 11 l120 0 0 30 0 30 -125 0 c-149 0 -150 1 -73 97 l52 66 -3 96 c-4
134 -38 203 -118 237 -41 18 -138 17 -178 0z"/>
</g>
</svg>
