<?xml version="1.0" standalone="no"?>
<!DOCTYPE svg PUBLIC "-//W3C//DTD SVG 20010904//EN"
 "http://www.w3.org/TR/2001/REC-SVG-20010904/DTD/svg10.dtd">
<svg version="1.0" xmlns="http://www.w3.org/2000/svg"
 width="600.000000pt" height="198.000000pt" viewBox="0 0 600.000000 198.000000"
 preserveAspectRatio="xMidYMid meet">

<g transform="translate(0.000000,198.000000) scale(0.100000,-0.100000)"
fill="#000000" stroke="none">
<path d="M3503 1795 c6 -34 -5 -55 -18 -35 -3 5 -11 10 -18 10 -8 0 -8 -3 1
-12 7 -7 12 -22 12 -34 0 -13 5 -26 11 -29 6 -4 8 -13 5 -21 -3 -7 -1 -16 4
-19 5 -3 9 -13 9 -23 0 -9 8 -48 19 -85 11 -38 18 -77 15 -87 -3 -10 4 -27 16
-39 15 -15 21 -34 21 -66 0 -25 5 -45 11 -45 5 0 7 -4 4 -10 -3 -5 -20 -10
-36 -10 -42 0 -103 -34 -117 -66 l-13 -27 63 7 c35 4 63 8 63 9 5 24 38 76 45
72 5 -3 8 -42 5 -88 -3 -69 -2 -77 7 -47 l11 35 17 -57 c10 -31 15 -69 12 -84
-3 -18 -1 -25 6 -20 12 7 38 -92 30 -115 -3 -8 1 -18 8 -24 6 -5 15 -27 18
-47 6 -33 4 -37 -16 -40 -15 -2 -23 -10 -23 -22 0 -25 -30 -45 -45 -30 -9 9
-7 42 5 123 9 62 15 120 13 129 -2 9 -12 -41 -21 -113 -10 -71 -22 -132 -28
-135 -5 -4 -7 -14 -3 -23 4 -12 -1 -18 -20 -23 -15 -3 -26 -14 -28 -27 -2 -17
-10 -22 -30 -22 -25 1 -28 -3 -28 -32 0 -57 -27 -41 -40 25 -6 31 -16 73 -21
92 -13 50 -11 80 5 80 10 0 12 11 8 48 -6 60 -12 67 -12 14 0 -31 -4 -42 -15
-42 -8 0 -15 7 -15 15 0 12 -15 15 -76 15 -64 0 -75 -2 -70 -15 6 -18 -2 -45
-15 -45 -5 0 -9 14 -9 30 0 28 -2 30 -39 30 -36 0 -39 -2 -45 -35 -4 -19 -13
-35 -20 -35 -6 0 -42 25 -79 55 -37 31 -67 51 -67 45 0 -5 4 -10 8 -10 4 0 32
-22 62 -50 30 -27 60 -50 67 -50 17 0 16 -13 -11 -145 l-22 -110 -54 -5 c-53
-5 -54 -6 -68 -47 -22 -68 -35 -53 -30 37 3 71 1 80 -14 80 -16 0 -18 -11 -18
-90 0 -89 0 -90 -24 -90 -19 0 -26 7 -30 27 -3 16 -19 91 -36 167 -34 159 -35
164 -17 185 9 12 11 56 7 176 l-6 160 -2 -163 c-2 -150 -3 -163 -19 -160 -13
3 -17 12 -16 31 l2 27 -75 0 -74 0 0 -31 c0 -20 -4 -29 -12 -26 -7 2 -12 16
-11 31 2 24 -1 26 -36 26 -38 0 -39 -1 -53 -53 -14 -50 -16 -52 -51 -55 -36
-3 -37 -2 -37 32 0 19 -4 46 -9 59 -8 20 -14 23 -42 19 -30 -4 -31 -6 -12 -13
16 -6 20 -13 16 -30 -5 -18 -3 -21 10 -16 13 5 17 0 17 -22 0 -16 -7 -31 -14
-34 -8 -3 -18 -22 -22 -41 -6 -34 -9 -36 -44 -36 -40 0 -57 20 -45 52 3 8 0
25 -7 39 -11 20 -18 24 -38 18 -14 -4 -19 -7 -11 -8 9 -1 12 -9 8 -27 -4 -21
-1 -25 14 -21 15 4 19 0 19 -24 0 -24 -4 -29 -25 -29 -20 0 -25 -5 -25 -24 0
-32 -18 -45 -74 -52 -55 -8 -66 1 -66 54 0 17 -4 32 -10 32 -5 0 -10 -7 -10
-15 0 -7 -8 -19 -17 -24 -10 -6 -12 -11 -5 -11 17 0 15 -40 -2 -40 -9 0 -18
-28 -29 -86 -9 -48 -18 -89 -21 -91 -3 -3 -12 -3 -21 0 -11 5 -15 21 -15 61 0
46 -3 54 -17 52 -14 -2 -19 -15 -21 -59 -3 -48 -6 -57 -22 -57 -16 0 -19 9
-22 58 -3 49 -6 57 -23 57 -17 0 -21 -8 -25 -60 -4 -46 -7 -55 -13 -37 -7 19
-15 22 -68 22 -33 0 -59 4 -59 10 0 6 -24 10 -54 10 -30 0 -58 -4 -61 -10 -3
-5 -29 -10 -57 -10 -41 0 -51 -3 -55 -20 -8 -29 -40 -25 -47 5 -4 14 -11 25
-16 25 -6 0 -10 7 -10 15 0 8 -7 15 -15 15 -8 0 -15 -7 -15 -15 0 -8 -4 -15
-9 -15 -5 0 -12 -12 -15 -26 -7 -26 -8 -26 -91 -23 l-84 4 -11 -42 -10 -43
-120 0 -120 0 0 25 0 25 -295 0 -295 0 -20 32 c-29 47 -25 29 10 -44 16 -34
30 -69 30 -77 0 -7 5 -31 12 -52 l11 -39 2592 0 2592 0 41 57 c46 65 133 159
205 220 l47 41 -62 -5 c-35 -2 -91 0 -124 4 -47 7 -63 6 -70 -4 -9 -12 -135
-24 -424 -38 -63 -3 -140 -8 -171 -11 l-56 -6 1 38 c1 27 7 39 21 45 20 7 20
8 0 8 -11 1 -28 10 -38 21 -13 16 -29 20 -72 20 l-55 0 0 -34 c0 -19 9 -45 21
-60 12 -15 18 -31 13 -35 -5 -5 -70 -11 -144 -15 -74 -3 -181 -9 -237 -13
l-103 -6 0 32 c0 18 -6 34 -14 37 -31 12 -29 109 3 117 11 3 10 5 -5 6 -12 1
-26 12 -32 26 -15 33 -15 35 6 36 11 0 12 2 4 6 -7 3 -17 16 -23 30 -13 34
-29 19 -29 -27 0 -21 -3 -41 -7 -43 -5 -2 -29 -2 -56 1 -55 5 -66 18 -70 89
-1 31 -7 50 -17 54 -12 6 -12 8 4 14 11 5 21 3 27 -6 7 -10 8 -7 5 11 -4 21 8
36 79 100 47 41 85 79 85 83 0 5 -39 -28 -86 -72 -48 -45 -90 -81 -95 -81 -4
0 -31 33 -60 73 -29 39 -84 113 -121 164 -42 57 -68 102 -68 117 0 26 -1 26
-75 26 -72 0 -76 1 -85 26 -17 44 -13 54 25 54 31 0 35 3 35 25 0 23 -4 25
-44 25 -37 0 -45 4 -50 23 -10 37 -7 47 14 47 13 0 20 7 20 20 0 15 -7 20 -29
20 -25 0 -30 4 -33 27 -4 34 -38 46 -38 14 0 -42 -17 -20 -28 37 -6 31 -20 87
-31 124 -16 57 -17 69 -5 79 17 14 19 79 3 79 -8 0 -10 -12 -6 -35z m150 -342
c-7 -2 -19 -2 -25 0 -7 3 -2 5 12 5 14 0 19 -2 13 -5z m55 -130 c-10 -2 -28
-2 -40 0 -13 2 -5 4 17 4 22 1 32 -1 23 -4z m102 -123 c0 -5 -9 -10 -20 -10
-11 0 -20 5 -20 10 0 6 9 10 20 10 11 0 20 -4 20 -10z m4 -26 c9 -3 37 -36 63
-73 26 -36 80 -111 121 -165 l74 -99 -21 -21 c-12 -11 -21 -15 -21 -8 0 7 -9
12 -20 12 -11 0 -20 -4 -20 -10 0 -5 -16 -10 -35 -10 -28 0 -37 5 -50 30 -9
17 -20 30 -25 30 -6 0 -10 14 -10 31 0 27 3 29 22 24 18 -6 20 -4 13 11 -4 11
-10 27 -12 37 -12 40 -34 2 -37 -63 -1 -34 -2 -35 -41 -35 -39 0 -40 1 -53 48
-13 47 -13 49 14 84 20 26 23 37 14 43 -7 4 -9 16 -5 29 5 17 2 21 -14 21 -23
0 -28 -16 -8 -23 9 -3 9 -7 0 -17 -17 -19 -43 -4 -43 24 0 15 11 33 28 46 l27
22 -29 -17 c-31 -19 -41 -13 -51 28 l-7 27 55 0 c30 0 62 -3 71 -6z m-64 -154
c0 -5 -4 -10 -10 -10 -5 0 -10 5 -10 10 0 6 5 10 10 10 6 0 10 -4 10 -10z m15
-19 c-3 -6 -11 -11 -17 -11 -6 0 -6 6 2 15 14 17 26 13 15 -4z m-3287 -628
c-38 -2 -98 -2 -135 0 -38 2 -7 3 67 3 74 0 105 -1 68 -3z m145 0 c-13 -2 -35
-2 -50 0 -16 2 -5 4 22 4 28 0 40 -2 28 -4z m105 0 c-16 -2 -40 -2 -55 0 -16
2 -3 4 27 4 30 0 43 -2 28 -4z m110 0 c-16 -2 -40 -2 -55 0 -16 2 -3 4 27 4
30 0 43 -2 28 -4z m-506 -25 c-9 -9 -15 -9 -24 0 -9 9 -7 12 12 12 19 0 21 -3
12 -12z m110 0 c-8 -8 -23 -8 -54 -1 l-43 11 55 1 c41 1 51 -2 42 -11z m98 2
c0 -5 -18 -10 -40 -10 -22 0 -40 5 -40 10 0 6 18 10 40 10 22 0 40 -4 40 -10z
m100 0 c0 -5 -18 -10 -39 -10 -22 0 -43 5 -46 10 -4 6 12 10 39 10 25 0 46 -4
46 -10z m110 0 c0 -5 -22 -10 -50 -10 -27 0 -50 5 -50 10 0 6 23 10 50 10 28
0 50 -4 50 -10z m110 0 c0 -5 -22 -10 -50 -10 -27 0 -50 5 -50 10 0 6 23 10
50 10 28 0 50 -4 50 -10z"/>
<path d="M3789 1153 c-13 -16 -12 -17 4 -4 16 13 21 21 13 21 -2 0 -10 -8 -17
-17z"/>
<path d="M4031 844 c0 -11 3 -14 6 -6 3 7 2 16 -1 19 -3 4 -6 -2 -5 -13z"/>
<path d="M3780 1266 c0 -11 9 -16 30 -16 17 0 30 4 30 10 0 5 -7 7 -15 4 -8
-4 -22 -1 -30 6 -12 10 -15 9 -15 -4z"/>
<path d="M3537 1180 c-4 -14 -6 -38 -6 -55 1 -24 3 -21 10 15 10 49 7 80 -4
40z"/>
<path d="M3591 1094 c0 -11 3 -14 6 -6 3 7 2 16 -1 19 -3 4 -6 -2 -5 -13z"/>
<path d="M3524 1005 c0 -49 1 -71 3 -48 2 23 2 64 0 90 -2 26 -3 8 -3 -42z"/>
<path d="M3580 1039 c0 -5 5 -7 10 -4 6 3 10 8 10 11 0 2 -4 4 -10 4 -5 0 -10
-5 -10 -11z"/>
<path d="M3582 910 c0 -14 2 -19 5 -12 2 6 2 18 0 25 -3 6 -5 1 -5 -13z"/>
<path d="M3531 869 c1 -19 5 -45 9 -59 6 -16 7 -6 3 30 -7 63 -13 80 -12 29z"/>
<path d="M3555 758 c4 -13 11 -27 16 -33 5 -5 4 5 -2 23 -12 36 -24 44 -14 10z"/>
<path d="M200 525 c0 -9 30 -65 35 -65 7 0 -16 60 -26 66 -5 3 -9 2 -9 -1z"/>
</g>
</svg>
