<?xml version="1.0" standalone="no"?>
<!DOCTYPE svg PUBLIC "-//W3C//DTD SVG 20010904//EN"
 "http://www.w3.org/TR/2001/REC-SVG-20010904/DTD/svg10.dtd">
<svg version="1.0" xmlns="http://www.w3.org/2000/svg"
 width="209.000000pt" height="31.000000pt" viewBox="0 0 209.000000 31.000000"
 preserveAspectRatio="xMidYMid meet">
<metadata>
Created by potrace 1.16, written by Peter Selinger 2001-2019
</metadata>
<g transform="translate(0.000000,31.000000) scale(0.100000,-0.100000)"
fill="#000000" stroke="none">
<path d="M605 289 c-476 -21 -543 -33 -579 -100 -19 -36 -19 -36 0 -70 28 -47
91 -68 234 -79 192 -15 730 -33 805 -27 39 3 158 10 266 16 356 18 536 40 651
81 124 44 124 47 -10 94 -185 64 -868 107 -1367 85z m195 -2 c0 -2 -10 -12
-22 -23 -12 -10 -18 -13 -14 -6 4 7 1 12 -9 12 -9 0 -13 -4 -10 -10 4 -6 -10
-10 -36 -10 -23 0 -39 -3 -36 -7 4 -3 -3 -13 -14 -21 -17 -12 -18 -16 -8 -23
10 -6 11 -9 1 -9 -14 0 -12 -21 3 -32 6 -5 6 -8 -1 -8 -6 0 -11 -7 -11 -15 0
-8 5 -15 11 -15 6 0 5 -4 -3 -9 -10 -7 -9 -11 8 -23 11 -8 18 -18 14 -21 -3
-4 13 -7 36 -7 26 0 40 -4 36 -10 -3 -6 1 -10 10 -10 9 0 13 4 10 10 -11 18 1
11 21 -12 10 -12 14 -18 8 -15 -7 4 -103 9 -215 12 -112 3 -237 8 -276 11
l-73 6 0 103 0 103 73 6 c39 3 164 8 276 11 113 3 207 7 209 10 6 6 12 7 12 2z
m715 -27 c247 -15 225 -5 225 -105 0 -100 22 -90 -225 -105 -299 -18 -387 -19
-367 -4 9 8 43 14 75 14 44 0 57 3 57 15 0 8 5 15 10 15 6 0 10 28 10 65 0 37
-4 65 -10 65 -5 0 -10 7 -10 15 0 12 -13 15 -57 15 -32 0 -66 6 -75 14 -20 15
68 14 367 -4z m-455 -30 c0 -6 -65 -11 -162 -12 l-163 -3 0 -60 0 -60 163 -3
c97 -1 162 -6 162 -12 0 -6 -68 -10 -175 -10 l-175 0 0 85 0 85 175 0 c107 0
175 -4 175 -10z m15 -42 c-8 -29 -8 -37 0 -65 l7 -23 -161 0 c-101 0 -161 4
-161 10 0 8 106 16 148 11 7 -1 12 11 12 34 0 23 -5 35 -12 34 -42 -5 -148 3
-148 11 0 6 60 10 161 10 l161 0 -7 -22z"/>
<path d="M290 155 l0 -75 75 0 75 0 0 75 0 75 -75 0 -75 0 0 -75z"/>
<path d="M460 155 l0 -75 75 0 75 0 0 75 0 75 -75 0 -75 0 0 -75z"/>
<path d="M1320 155 l0 -75 75 0 75 0 0 75 0 75 -75 0 -75 0 0 -75z"/>
<path d="M1490 155 l0 -75 75 0 75 0 0 75 0 75 -75 0 -75 0 0 -75z"/>
</g>
</svg>
