<?xml version="1.0" standalone="no"?>
<!DOCTYPE svg PUBLIC "-//W3C//DTD SVG 20010904//EN"
 "http://www.w3.org/TR/2001/REC-SVG-20010904/DTD/svg10.dtd">
<svg version="1.0" xmlns="http://www.w3.org/2000/svg"
 width="31.000000pt" height="209.000000pt" viewBox="0 0 31.000000 209.000000"
 preserveAspectRatio="xMidYMid meet">
<metadata>
Created by potrace 1.16, written by Peter Selinger 2001-2019
</metadata>
<g transform="translate(0.000000,209.000000) scale(0.100000,-0.100000)"
fill="#000000" stroke="none">
<path d="M142 2063 c-61 -114 -92 -315 -113 -732 -6 -108 -13 -227 -16 -266
-3 -38 0 -209 6 -380 21 -552 32 -621 102 -659 36 -19 36 -19 70 0 47 28 68
91 79 234 15 192 33 730 27 805 -3 39 -10 158 -16 266 -18 356 -40 536 -81
651 -34 94 -44 108 -58 81z m102 -350 c6 -34 24 -326 29 -475 3 -90 2 -104 -9
-90 -8 9 -14 43 -14 75 0 44 -3 57 -15 57 -8 0 -15 5 -15 10 0 6 -28 10 -65
10 -37 0 -65 -4 -65 -10 0 -5 -7 -10 -15 -10 -12 0 -15 -13 -15 -57 0 -32 -6
-66 -14 -75 -15 -20 -14 68 4 367 15 247 5 225 105 225 83 0 83 0 89 -27z
m-89 -644 c6 0 20 3 33 6 l22 7 0 -161 c0 -101 -4 -161 -10 -161 -8 0 -16 106
-11 148 1 7 -11 12 -34 12 -23 0 -35 -5 -34 -12 5 -42 -3 -148 -11 -148 -6 0
-10 60 -10 161 l0 161 23 -7 c12 -3 27 -6 32 -6z m-63 -171 l3 -163 60 0 60 0
3 163 c1 97 6 162 12 162 6 0 10 -68 10 -175 l0 -175 -85 0 -85 0 0 175 c0
107 4 175 10 175 6 0 11 -65 12 -162z m-46 -120 c10 -12 13 -18 7 -14 -8 4
-13 1 -13 -9 0 -9 5 -13 10 -10 6 4 10 -10 10 -36 0 -23 3 -39 7 -36 3 4 13
-3 21 -14 12 -17 16 -18 23 -8 6 10 9 11 9 1 0 -14 21 -12 32 3 5 6 8 6 8 -1
0 -6 7 -11 15 -11 8 0 15 5 15 11 0 6 4 5 9 -3 7 -10 11 -9 23 8 8 11 18 18
21 14 4 -3 7 13 7 36 0 26 4 40 10 36 6 -3 10 1 10 10 0 9 -4 13 -10 10 -18
-11 -11 1 12 21 12 10 18 14 15 8 -4 -7 -9 -103 -12 -215 -3 -112 -8 -237 -11
-277 l-6 -72 -103 0 -103 0 -6 73 c-3 39 -8 164 -11 276 -3 112 -8 207 -11
212 -10 17 3 9 22 -13z"/>
<path d="M80 1565 l0 -75 75 0 75 0 0 75 0 75 -75 0 -75 0 0 -75z"/>
<path d="M80 1395 l0 -75 75 0 75 0 0 75 0 75 -75 0 -75 0 0 -75z"/>
<path d="M80 535 l0 -75 75 0 75 0 0 75 0 75 -75 0 -75 0 0 -75z"/>
<path d="M80 365 l0 -75 75 0 75 0 0 75 0 75 -75 0 -75 0 0 -75z"/>
</g>
</svg>
