<?xml version="1.0" standalone="no"?>
<!DOCTYPE svg PUBLIC "-//W3C//DTD SVG 20010904//EN"
 "http://www.w3.org/TR/2001/REC-SVG-20010904/DTD/svg10.dtd">
<svg version="1.0" xmlns="http://www.w3.org/2000/svg"
 width="13.000000pt" height="55.000000pt" viewBox="0 0 13.000000 55.000000"
 preserveAspectRatio="xMidYMid meet">

<g transform="translate(0.000000,55.000000) scale(0.100000,-0.100000)"
fill="#000000" stroke="none">
<path d="M47 503 c-31 -78 -40 -160 -34 -311 3 -81 8 -154 12 -163 9 -23 71
-23 80 0 4 9 9 84 12 167 6 154 -8 263 -41 323 -13 23 -13 23 -29 -16z m48
-77 c7 -36 6 -38 -11 -28 -12 7 -25 7 -36 1 -23 -12 -23 0 -2 72 l17 54 13
-30 c7 -17 16 -48 19 -69z m-3 -138 c2 -13 1 -39 -2 -58 -4 -35 -4 -35 -10 10
-3 25 -9 45 -15 45 -5 0 -12 -20 -15 -45 -6 -45 -6 -45 -10 -10 -8 59 -1 80
25 80 17 0 25 -6 27 -22z m-25 -45 c-3 -10 -5 -4 -5 12 0 17 2 24 5 18 2 -7 2
-21 0 -30z m11 -95 c-2 -24 -7 -43 -13 -43 -5 0 -11 19 -13 43 -3 33 0 42 13
42 13 0 16 -9 13 -42z m22 -98 c0 -16 -7 -20 -35 -20 -28 0 -35 4 -35 20 0 16
7 20 35 20 28 0 35 -4 35 -20z"/>
<path d="M62 145 c0 -16 2 -22 5 -12 2 9 2 23 0 30 -3 6 -5 -1 -5 -18z"/>
</g>
</svg>
