<?xml version="1.0" standalone="no"?>
<!DOCTYPE svg PUBLIC "-//W3C//DTD SVG 20010904//EN"
 "http://www.w3.org/TR/2001/REC-SVG-20010904/DTD/svg10.dtd">
<svg version="1.0" xmlns="http://www.w3.org/2000/svg"
 width="55.000000pt" height="13.000000pt" viewBox="0 0 55.000000 13.000000"
 preserveAspectRatio="xMidYMid meet">

<g transform="translate(0.000000,13.000000) scale(0.100000,-0.100000)"
fill="#000000" stroke="none">
<path d="M85 113 c-69 -8 -73 -11 -73 -47 0 -23 6 -37 17 -41 9 -4 82 -9 163
-12 151 -6 233 3 311 34 l39 16 -25 14 c-54 28 -152 43 -277 41 -69 0 -138 -3
-155 -5z m-15 -48 c0 -28 -4 -35 -20 -35 -16 0 -20 7 -20 35 0 28 4 35 20 35
16 0 20 -7 20 -35z m240 0 c0 -26 -22 -33 -80 -25 -35 4 -35 4 10 10 25 3 45
10 45 15 0 6 -20 13 -45 16 -45 5 -45 5 -10 10 58 7 80 0 80 -26z m161 19 l54
-17 -30 -13 c-17 -7 -48 -16 -69 -19 -36 -7 -38 -6 -28 11 7 12 7 25 1 36 -12
23 0 23 72 2z m-281 -19 c0 -11 -11 -15 -39 -15 -38 0 -57 10 -44 24 3 3 24 6
45 6 27 0 38 -4 38 -15z m83 -2 c-7 -2 -21 -2 -30 0 -10 3 -4 5 12 5 17 0 24
-2 18 -5z"/>
<path d="M133 63 c9 -2 23 -2 30 0 6 3 -1 5 -18 5 -16 0 -22 -2 -12 -5z"/>
</g>
</svg>
