<?xml version="1.0" standalone="no"?>
<!DOCTYPE svg PUBLIC "-//W3C//DTD SVG 20010904//EN"
 "http://www.w3.org/TR/2001/REC-SVG-20010904/DTD/svg10.dtd">
<svg version="1.0" xmlns="http://www.w3.org/2000/svg"
 width="100.000000pt" height="20.000000pt" viewBox="0 0 100.000000 20.000000"
 preserveAspectRatio="xMidYMid meet">

<g transform="translate(0.000000,20.000000) scale(0.100000,-0.100000)"
fill="#000000" stroke="none">
<path d="M600 181 c0 -4 -111 -11 -247 -15 -137 -3 -268 -9 -293 -14 l-45 -7
-2 -47 c-1 -26 1 -49 5 -52 18 -11 252 -25 437 -27 215 -1 340 10 448 40 80
22 98 35 71 49 -31 16 -184 50 -254 56 -36 4 -66 11 -68 16 -4 12 -52 13 -52
1z m40 -26 c0 -16 -6 -25 -15 -25 -9 0 -15 9 -15 25 0 16 6 25 15 25 9 0 15
-9 15 -25z m-560 -60 c0 -41 -2 -45 -25 -45 -23 0 -25 4 -25 45 0 41 2 45 25
45 23 0 25 -4 25 -45z m373 38 c-64 -2 -113 -8 -113 -13 0 -6 -11 -10 -25 -10
-16 0 -25 6 -25 15 0 13 21 15 138 13 l137 -2 -112 -3z m204 -60 c-2 -16 -4
-5 -4 22 0 28 2 40 4 28 2 -13 2 -35 0 -50z m180 0 c-2 -16 -4 -5 -4 22 0 28
2 40 4 28 2 -13 2 -35 0 -50z m-567 22 c0 -31 -3 -35 -25 -35 -22 0 -25 4 -25
35 0 31 3 35 25 35 22 0 25 -4 25 -35z m680 13 l35 -11 -30 -12 c-37 -15 -120
-29 -90 -16 11 5 33 12 49 16 23 5 27 8 15 16 -7 5 -23 9 -34 9 -11 0 -27 5
-35 11 -17 12 32 5 90 -13z m-427 5 c-29 -2 -78 -2 -110 0 -32 2 -8 3 52 3 61
0 87 -1 58 -3z m117 -18 c0 -14 -4 -25 -10 -25 -5 0 -10 11 -10 25 0 14 5 25
10 25 6 0 10 -11 10 -25z m257 5 c22 0 14 -6 -19 -14 -22 -5 -28 -3 -28 10 0
11 5 14 16 10 9 -3 23 -6 31 -6z m-557 -30 c0 -5 49 -11 113 -13 l112 -3 -137
-2 c-117 -2 -138 0 -138 13 0 9 9 15 25 15 14 0 25 -4 25 -10z m183 3 c-29 -2
-78 -2 -110 0 -32 2 -8 3 52 3 61 0 87 -1 58 -3z m117 -33 c0 -11 -7 -20 -15
-20 -8 0 -15 9 -15 20 0 11 7 20 15 20 8 0 15 -9 15 -20z"/>
</g>
</svg>
