<?xml version="1.0" standalone="no"?>
<!DOCTYPE svg PUBLIC "-//W3C//DTD SVG 20010904//EN"
 "http://www.w3.org/TR/2001/REC-SVG-20010904/DTD/svg10.dtd">
<svg version="1.0" xmlns="http://www.w3.org/2000/svg"
 width="20.000000pt" height="100.000000pt" viewBox="0 0 20.000000 100.000000"
 preserveAspectRatio="xMidYMid meet">

<g transform="translate(0.000000,100.000000) scale(0.100000,-0.100000)"
fill="#000000" stroke="none">
<path d="M92 974 c-16 -31 -50 -184 -56 -254 -4 -36 -11 -66 -16 -68 -12 -4
-13 -52 -1 -52 4 0 11 -111 15 -247 3 -137 9 -268 14 -293 l7 -45 47 -2 c26
-1 49 1 52 5 11 18 25 252 27 437 1 215 -10 340 -40 448 -22 80 -35 98 -49 71z
m42 -89 c6 -45 -8 -22 -19 29 -5 23 -8 27 -16 15 -5 -7 -9 -23 -9 -34 0 -11
-5 -27 -11 -35 -12 -17 -5 32 13 90 l11 35 12 -30 c7 -16 15 -48 19 -70z m-20
-7 c5 -22 3 -28 -10 -28 -11 0 -14 5 -10 16 3 9 6 23 6 31 0 22 6 14 14 -19z
m19 -45 c-13 -2 -35 -2 -50 0 -16 2 -5 4 22 4 28 0 40 -2 28 -4z m0 -180 c-13
-2 -35 -2 -50 0 -16 2 -5 4 22 4 28 0 40 -2 28 -4z m-63 -28 c0 -9 -9 -15 -25
-15 -16 0 -25 6 -25 15 0 9 9 15 25 15 16 0 25 -6 25 -15z m60 5 c0 -5 -11
-10 -25 -10 -14 0 -25 5 -25 10 0 6 11 10 25 10 14 0 25 -4 25 -10z m50 -5 c0
-8 -9 -15 -20 -15 -11 0 -20 7 -20 15 0 8 9 15 20 15 11 0 20 -7 20 -15z m-93
-212 c-2 -32 -3 -8 -3 52 0 61 1 87 3 58 2 -29 2 -78 0 -110z m40 0 c-2 -32
-3 -8 -3 52 0 61 1 87 3 58 2 -29 2 -78 0 -110z m-47 -73 c6 0 10 -11 10 -25
0 -16 -6 -25 -15 -25 -13 0 -15 21 -13 138 l2 137 3 -112 c2 -64 8 -113 13
-113z m70 85 c0 -113 -2 -135 -15 -135 -9 0 -15 9 -15 25 0 14 5 25 10 25 6 0
10 43 10 110 0 61 2 110 5 110 3 0 5 -61 5 -135z m-10 -180 c0 -22 -4 -25 -35
-25 -31 0 -35 3 -35 25 0 22 4 25 35 25 31 0 35 -3 35 -25z m10 -190 c0 -23
-4 -25 -45 -25 -41 0 -45 2 -45 25 0 23 4 25 45 25 41 0 45 -2 45 -25z"/>
</g>
</svg>
