<?xml version="1.0" standalone="no"?>
<!DOCTYPE svg PUBLIC "-//W3C//DTD SVG 20010904//EN"
 "http://www.w3.org/TR/2001/REC-SVG-20010904/DTD/svg10.dtd">
<svg version="1.0" xmlns="http://www.w3.org/2000/svg"
 width="23.000000pt" height="128.000000pt" viewBox="0 0 23.000000 128.000000"
 preserveAspectRatio="xMidYMid meet">

<g transform="translate(0.000000,128.000000) scale(0.100000,-0.100000)"
fill="#000000" stroke="none">
<path d="M94 1245 c-29 -45 -44 -124 -54 -290 -5 -88 -12 -182 -16 -210 -8
-66 -5 -582 4 -665 l7 -65 80 0 80 0 7 65 c19 187 6 771 -23 1010 -10 83 -36
161 -57 174 -6 4 -19 -5 -28 -19z m6 -165 c0 -5 -4 -10 -10 -10 -5 0 -10 5
-10 10 0 6 5 10 10 10 6 0 10 -4 10 -10z m50 0 c0 -5 -4 -10 -10 -10 -5 0 -10
5 -10 10 0 6 5 10 10 10 6 0 10 -4 10 -10z m30 -80 l0 -30 -65 0 -65 0 0 30 0
30 65 0 65 0 0 -30z m3 -102 c7 -74 17 -299 10 -248 -2 19 -10 49 -18 67 -8
17 -15 38 -15 47 0 12 -10 16 -45 16 -35 0 -45 -4 -45 -16 0 -9 -7 -30 -15
-47 -8 -18 -16 -48 -18 -67 -7 -51 3 174 10 248 l6 62 62 0 62 0 6 -62z m-33
-143 c0 -10 -11 -15 -35 -15 -24 0 -35 5 -35 15 0 10 11 15 35 15 24 0 35 -5
35 -15z m10 -32 c0 -5 -20 -8 -45 -8 -25 0 -45 3 -45 8 0 4 20 7 45 7 25 0 45
-3 45 -7z m-2 -30 c2 -9 -10 -13 -42 -13 -43 0 -55 7 -39 24 12 11 76 2 81
-11z m-101 -60 c-2 -16 -4 -5 -4 22 0 28 2 40 4 28 2 -13 2 -35 0 -50z m120 0
c-2 -16 -4 -5 -4 22 0 28 2 40 4 28 2 -13 2 -35 0 -50z m-94 2 c-3 -9 2 -24
11 -34 15 -16 15 -19 1 -24 -12 -5 -15 -25 -16 -99 -1 -51 -3 -85 -6 -75 -3
10 -14 17 -29 17 -13 0 -24 5 -24 10 0 6 11 10 25 10 24 0 25 2 25 70 0 68 -1
70 -25 70 -14 0 -25 5 -25 10 0 6 11 10 25 10 20 0 25 5 25 25 0 14 4 25 10
25 5 0 7 -7 3 -15z m53 4 c3 -6 1 -16 -5 -22 -8 -8 -11 -6 -12 9 0 19 -1 19
-8 0 -5 -14 -10 -16 -15 -8 -4 7 -4 17 -1 22 8 13 32 13 41 -1z m24 -14 c0
-20 5 -25 25 -25 14 0 25 -4 25 -10 0 -5 -11 -10 -25 -10 -24 0 -25 -2 -25
-70 0 -68 1 -70 25 -70 14 0 25 -4 25 -10 0 -5 -11 -10 -24 -10 -15 0 -26 -7
-29 -17 -3 -10 -5 24 -6 75 -1 74 -4 94 -16 99 -14 5 -14 8 1 24 9 10 14 25
11 34 -4 8 -2 15 3 15 6 0 10 -11 10 -25z m-22 -147 l-2 -93 -3 88 c-3 67 -7
87 -18 87 -11 0 -15 -20 -18 -87 l-3 -88 -2 93 -2 92 25 0 25 0 -2 -92z m-81
-5 c-2 -16 -4 -3 -4 27 0 30 2 43 4 28 2 -16 2 -40 0 -55z m120 0 c-2 -16 -4
-3 -4 27 0 30 2 43 4 28 2 -16 2 -40 0 -55z m-140 -10 c-3 -10 -5 -2 -5 17 0
19 2 27 5 18 2 -10 2 -26 0 -35z m160 0 c-3 -10 -5 -2 -5 17 0 19 2 27 5 18 2
-10 2 -26 0 -35z m-123 -100 c19 -23 19 -23 -2 -23 -17 0 -22 6 -22 27 0 14 1
24 3 22 1 -2 11 -14 21 -26z m106 2 c0 -19 -5 -25 -20 -25 -20 0 -20 1 -3 25
22 30 23 30 23 0z m-131 -38 c-3 -29 4 -40 11 -17 8 25 8 25 9 2 1 -13 6 -20
11 -17 6 3 10 1 10 -4 0 -6 -4 -11 -10 -11 -5 0 -10 -24 -10 -53 l0 -53 45 0
45 0 0 53 c0 29 -4 53 -10 53 -5 0 -10 5 -10 11 0 5 5 7 10 4 6 -3 10 4 11 17
1 23 1 23 9 -2 7 -23 14 -12 11 17 -1 6 3 14 9 18 6 4 10 -27 10 -89 l0 -96
-85 0 -85 0 0 96 c0 62 4 93 10 89 6 -4 10 -12 9 -18z m51 -212 c0 -8 7 -15
15 -15 8 0 15 7 15 15 0 8 5 15 10 15 6 0 10 -18 10 -40 0 -22 -4 -40 -10 -40
-5 0 -10 7 -10 15 0 8 -7 15 -15 15 -8 0 -15 -7 -15 -15 0 -8 -4 -15 -10 -15
-5 0 -10 18 -10 40 0 22 5 40 10 40 6 0 10 -7 10 -15z"/>
<path d="M70 877 l0 -53 45 0 45 0 0 53 0 53 -45 0 -45 0 0 -53z"/>
</g>
</svg>
