<?xml version="1.0" standalone="no"?>
<!DOCTYPE svg PUBLIC "-//W3C//DTD SVG 20010904//EN"
 "http://www.w3.org/TR/2001/REC-SVG-20010904/DTD/svg10.dtd">
<svg version="1.0" xmlns="http://www.w3.org/2000/svg"
 width="128.000000pt" height="23.000000pt" viewBox="0 0 128.000000 23.000000"
 preserveAspectRatio="xMidYMid meet">

<g transform="translate(0.000000,23.000000) scale(0.100000,-0.100000)"
fill="#000000" stroke="none">
<path d="M226 208 c-109 -3 -202 -10 -207 -15 -6 -6 -9 -43 -7 -84 l3 -74 65
-7 c189 -19 786 -6 1017 24 80 10 166 43 166 63 0 20 -86 53 -166 63 -98 13
-431 33 -572 35 -55 1 -189 -1 -299 -5z m214 -23 c0 -24 2 -25 70 -25 68 0 70
1 70 25 0 14 5 25 10 25 6 0 10 -11 10 -25 0 -20 5 -25 25 -25 14 0 25 -4 25
-10 0 -5 -7 -7 -15 -3 -9 3 -24 -2 -34 -11 -16 -15 -19 -15 -24 -1 -5 12 -25
15 -99 16 -51 1 -85 3 -75 6 10 3 17 14 17 29 0 13 5 24 10 24 6 0 10 -11 10
-25z m-95 5 c-4 -6 -12 -10 -18 -9 -29 3 -40 -4 -17 -11 25 -8 25 -8 2 -9 -13
-1 -20 -5 -17 -11 3 -5 1 -10 -4 -10 -6 0 -11 5 -11 10 0 6 -24 10 -53 10
l-53 0 0 -45 0 -45 53 0 c29 0 53 5 53 10 0 6 5 10 11 10 5 0 7 -4 4 -10 -3
-5 4 -10 17 -11 23 -1 23 -1 -2 -9 -23 -7 -12 -14 17 -11 6 1 14 -3 18 -9 4
-6 -27 -10 -89 -10 l-96 0 0 85 0 85 96 0 c62 0 93 -4 89 -10z m153 3 c-10 -2
-26 -2 -35 0 -10 3 -2 5 17 5 19 0 27 -2 18 -5z m400 -10 l62 -6 0 -62 0 -62
-62 -6 c-74 -7 -299 -17 -248 -10 19 2 49 10 67 18 17 8 38 15 47 15 12 0 16
10 16 45 0 35 -4 45 -16 45 -9 0 -30 7 -47 15 -18 8 -48 16 -67 18 -51 7 174
-3 248 -10z m-509 -6 c-2 -1 -14 -11 -26 -21 -23 -19 -23 -19 -23 2 0 17 6 22
27 22 14 0 24 -1 22 -3z m139 -4 c-16 -2 -40 -2 -55 0 -16 2 -3 4 27 4 30 0
43 -2 28 -4z m155 0 c-13 -2 -35 -2 -50 0 -16 2 -5 4 22 4 28 0 40 -2 28 -4z
m347 -58 l0 -65 -30 0 -30 0 0 65 0 65 30 0 30 0 0 -65z m-325 0 c0 -22 -5
-40 -12 -43 -9 -2 -13 10 -13 43 0 33 4 45 13 43 7 -3 12 -21 12 -43z m25 0
c0 -25 -3 -45 -7 -45 -5 0 -8 20 -8 45 0 25 3 45 8 45 4 0 7 -20 7 -45z m-600
25 c0 -5 -7 -10 -15 -10 -8 0 -15 -7 -15 -15 0 -8 7 -15 15 -15 8 0 15 -4 15
-10 0 -5 -18 -10 -40 -10 -22 0 -40 5 -40 10 0 6 7 10 15 10 8 0 15 7 15 15 0
8 -7 15 -15 15 -8 0 -15 5 -15 10 0 6 18 10 40 10 22 0 40 -4 40 -10z m640
-25 c0 -24 -5 -35 -15 -35 -10 0 -15 11 -15 35 0 24 5 35 15 35 10 0 15 -11
15 -35z m320 25 c0 -5 -4 -10 -10 -10 -5 0 -10 5 -10 10 0 6 5 10 10 10 6 0
10 -4 10 -10z m-520 -25 l0 -25 -92 2 -93 2 88 3 c67 3 87 7 87 18 0 11 -20
15 -87 18 l-88 3 93 2 92 2 0 -25z m77 9 c7 -20 -11 -39 -28 -28 -9 5 -8 9 7
15 17 7 17 8 1 8 -10 1 -15 6 -12 11 9 15 25 12 32 -6z m-12 -41 c8 4 15 2 15
-3 0 -6 -11 -10 -25 -10 -20 0 -25 -5 -25 -25 0 -14 -4 -25 -10 -25 -5 0 -10
11 -10 25 0 24 -2 25 -70 25 -68 0 -70 -1 -70 -25 0 -14 -4 -25 -10 -25 -5 0
-10 11 -10 24 0 15 -7 26 -17 29 -10 3 24 5 75 6 74 1 94 4 99 16 5 14 8 14
24 -1 10 -9 25 -14 34 -11z m455 7 c0 -5 -4 -10 -10 -10 -5 0 -10 5 -10 10 0
6 5 10 10 10 6 0 10 -4 10 -10z m-701 -37 c2 -2 -8 -3 -22 -3 -21 0 -27 5 -27
22 0 21 0 21 23 2 12 -10 24 -20 26 -21z m139 0 c-16 -2 -40 -2 -55 0 -16 2
-3 4 27 4 30 0 43 -2 28 -4z m155 0 c-13 -2 -35 -2 -50 0 -16 2 -5 4 22 4 28
0 40 -2 28 -4z m-185 -20 c-10 -2 -26 -2 -35 0 -10 3 -2 5 17 5 19 0 27 -2 18
-5z"/>
<path d="M824 115 l0 -45 53 0 53 0 0 45 0 45 -53 0 -53 0 0 -45z"/>
</g>
</svg>
